<svg viewBox="346.7625000000003 866.0256410256411 3269.475000000001 2523.8461538461534" xmlns="http://www.w3.org/2000/svg" xmlns:xlink="http://www.w3.org/1999/xlink" overflow="visible" width="3269.475000000001px" height="2523.8461538461534px"><defs><polygon id="masterspot-illustrationhappy-place-path-1" points="0 0.793997108 261.239057 0.793997108 261.239057 411.6245 0 411.6245"/><polygon id="masterspot-illustrationhappy-place-path-3" points="0 0.0722 432.2748 0.0722 432.2748 402 0 402"/><polygon id="masterspot-illustrationhappy-place-path-5" points="0.0002 0.5766 635.257 0.5766 635.257 364.999817 0.0002 364.999817"/><polygon id="masterspot-illustrationhappy-place-path-7" points="0 365.424 635.257 365.424 635.257 1 0 1"/><polygon id="masterspot-illustrationhappy-place-path-9" points="0.2961 0.0297382716 168.575 0.0297382716 168.575 293.567627 0.2961 293.567627"/></defs><g id="Master/Spot Illustration/Happy Place" stroke="none" stroke-width="1" fill="none" fill-rule="evenodd"><g id="Blobs" opacity=".5" transform="translate(1651.000000, 1627.000000) scale(-1, 1) translate(-1651.000000, -1627.000000) translate(528.000000, 327.000000) scale(1 1)"><g id="Blobs/6" stroke="none" stroke-width="1" fill="none" fill-rule="evenodd"><path d="M1467.91216,582.026688 C1666.71771,582.026688 1884.05316,651.009193 2013.28861,809.413463 C2073.00136,882.606834 2102.90512,968.52743 2102.99999,1053.92758 C2103.0473,1150.35169 2065.08705,1246.11341 1989.02438,1322.38213 C1918.68023,1392.88685 1828.85068,1440.6213 1737.10312,1479.80823 L1726.98062,1484.10902 C1716.64501,1488.54102 1706.1252,1493.50671 1699.60711,1502.50785 C1694.70074,1509.22742 1692.56503,1517.50188 1690.71082,1525.59168 L1690.36585,1527.10593 C1671.03503,1612.03295 1635.53438,1684.56394 1588.14331,1745.73978 L1588.10066,1745.73978 C1503.69242,1854.74917 1381.28129,1927.65866 1244.88978,1970.33508 C1140.43986,2003.03317 1027.7439,2018.02669 917.517005,2018.02669 C732.118396,2018.02669 561.937061,1974.59326 428.625978,1902.11432 L428.578587,1902.06227 C405.356962,1889.5243 383.225332,1875.99275 362.373261,1861.70419 C226.597843,1768.68663 142.999994,1641.65095 142.999994,1501.60417 C142.999994,1234.61632 446.871541,1014.94158 836.615708,987.977846 C880.07332,758.551877 1146.12679,582.026688 1467.91216,582.026688 Z M612.502381,593.026688 C680.155589,593.026688 734.999994,630.187085 734.999994,676.026688 C734.999994,721.871074 680.155589,759.026688 612.502381,759.026688 C544.844398,759.026688 489.999994,721.871074 489.999994,676.026688 C489.999994,630.187085 544.844398,593.026688 612.502381,593.026688 Z" id="Shape" fill="#FFF5F3" transform="translate(1123.000000, 1300.000000) scale(-1, 1) translate(-1123.000000, -1300.000000)"/></g></g><ellipse id="Floor" fill="#D5ECFF" opacity=".5" cx="1982" cy="3206" rx="1602" ry="58"/><g id="Tall Vase Plant" transform="translate(2207.000000, 859.000000) scale(1 1)"><g id="Tall Vase Plant/Plant 2" stroke="none" stroke-width="1" fill="none" fill-rule="evenodd"><g id="Tall-Vase-Plant-3" transform="translate(0.000000, 130.000000)"><path d="M811.817443,1109.99103 C811.817443,1109.99103 1196.75744,1033.14603 1336.00144,719.884028 C1475.24444,406.622028 1223.41944,430.323028 1060.70944,588.886028 C897.999443,747.449028 822.234443,924.913028 811.817443,1109.99103" id="Fill-29" fill="#F9C818"/><path d="M724.115343,1512.99783 C724.082343,1512.51083 720.973343,1463.39983 732.775343,1384.13983 C743.650343,1311.10383 769.780343,1196.62283 832.500343,1065.99783 C895.155343,935.511828 964.048343,835.615828 1010.81034,774.790828 C1061.52434,708.825828 1097.95634,673.212828 1098.31834,672.860828 L1103.89534,678.596828 C1103.53634,678.945828 1067.42134,714.262828 1017.03134,779.825828 C970.534343,840.321828 902.028343,939.678828 839.712343,1069.46083 C777.485343,1199.05783 751.539343,1312.59783 740.731343,1385.02583 C729.018343,1463.51783 732.065343,1511.98083 732.097343,1512.46083 L724.115343,1512.99783 Z" id="Fill-30" fill="#0A4343"/><path d="M721.235943,807.364328 C721.235943,807.364328 1059.81694,641.476328 1086.84394,303.682328 C1113.87094,-34.1116722 883.488943,48.5553278 782.530943,241.365328 C681.572943,434.175328 669.212943,624.799328 721.235943,807.364328" id="Fill-31" fill="#237978"/><path d="M659.676343,905.054728 C659.676343,905.054728 295.013343,609.803728 344.717343,226.480728 C394.421343,-156.843272 649.884343,10.5707278 723.810343,257.501728 C797.736343,504.432728 766.230343,719.798728 659.676343,905.054728" id="Fill-32" fill="#F9C818"/><path d="M625.411643,934.447028 C625.411643,934.447028 165.614643,840.967028 32.6806426,478.013028 C-100.254357,115.059028 203.649643,145.577028 383.254643,330.462028 C562.859643,515.346028 634.370643,720.922028 625.411643,934.447028" id="Fill-33" fill="#237978"/><path d="M681.122643,1562.08693 C680.936643,1560.02393 662.819643,1352.74693 682.367643,1092.42993 C693.851643,939.497928 715.895643,798.419928 747.886643,673.114928 C787.916643,516.321928 843.732643,383.890928 913.785643,279.499928 L920.427643,283.957928 C850.895643,387.573928 795.458643,519.146928 755.656643,675.021928 C723.780643,799.856928 701.809643,940.449928 690.354643,1092.89593 C670.842643,1352.58193 688.905643,1559.31393 689.090643,1561.37093 L681.122643,1562.08693 Z" id="Fill-34" fill="#0A4343"/><path d="M521.068943,1819.06403 L513.480943,1816.53103 C514.211943,1814.34003 586.995943,1593.91403 621.861943,1283.12203 C642.333943,1100.64503 645.921943,923.181028 632.526943,755.660028 C615.789943,546.350028 572.340943,352.066028 503.387943,178.204028 L510.824943,175.254028 C580.084943,349.890028 623.716943,544.991028 640.510943,755.140028 C653.940943,923.195028 650.333943,1101.20003 629.790943,1284.20903 C594.815943,1595.79203 521.801943,1816.86703 521.068943,1819.06403" id="Fill-35" fill="#0A4343"/><path d="M603.106943,2216.72903 L731.106943,2216.72903 C858.132435,2216.72903 961.106943,2113.75452 961.106943,1986.72903 L961.106943,1483.72903 L961.106943,1483.72903 L373.106943,1483.72903 L373.106943,1986.72903 C373.106943,2113.75452 476.08145,2216.72903 603.106943,2216.72903 Z" id="Fill-36" fill="#204EB2"/><path d="M639.113843,1031.96973 C635.217843,967.330728 609.652843,892.980728 563.129843,810.985728 C525.266843,744.254728 473.391843,672.151728 408.943843,596.679728 C307.352843,477.710728 201.322843,381.985728 160.451843,346.351728 C158.855843,344.960728 157.828843,344.064728 157.415843,343.688728 L162.797843,337.769728 C163.193843,338.129728 164.178843,338.987728 165.708843,340.321728 C206.713843,376.072728 313.091843,472.111728 415.027843,591.484728 C479.804843,667.343728 531.974843,739.865728 570.087843,807.037728 C617.218843,890.104728 643.128843,965.620728 647.098843,1031.48873 L639.113843,1031.96973 Z" id="Fill-38" fill="#0A4343"/></g></g></g><g id="Pet" transform="translate(1190.000000, 2772.500000) scale(-1, 1) translate(-1190.000000, -2772.500000) translate(411.000000, 2227.000000) scale(1 1)"><defs><polygon id="petdog-1-path-1" points="0.738028712 0.439759466 779.924 0.439759466 779.924 696.4825 0.738028712 696.4825"/><polygon id="petdog-1-path-3" points="0.2817 0.0902 77.6184974 0.0902 77.6184974 118 0.2817 118"/></defs><g id="Pet/Dog 1" stroke="none" stroke-width="1" fill="none" fill-rule="evenodd"><g id="Animal" transform="translate(362.000000, 269.000000)"><path d="M78.9106,514.7535 C78.9106,514.7535 72.2586,564.8635 21.3696,526.6975 C-29.5194,488.5305 26.4586,456.3015 26.4586,456.3015 C26.4586,456.3015 -20.1904,418.9825 12.0396,389.2975 C44.2686,359.6125 93.4616,359.6125 93.4616,359.6125 C93.4616,359.6125 102.7916,301.9395 146.8936,340.9535 C190.9976,379.9685 153.6796,408.8055 153.6796,408.8055 C153.6796,408.8055 165.0566,413.5395 174.2106,428.9835 C183.3646,444.4275 78.9106,514.7535 78.9106,514.7535" id="Fill-1" fill="#56ACF6"/><g id="Group-5" transform="translate(54.000000, 10.021000)"><mask id="petdog-1-mask-2" fill="#ffffff"><use xlink:href="#petdog-1-path-1" fill="#ffffff"/></mask><g id="Clip-4"/><path d="M468.6226,318.2105 C468.6226,318.2105 399.0746,396.2395 302.3866,407.2655 C205.6976,418.2915 73.3876,364.0105 16.5616,514.1315 C-40.2644,664.2535 74.2356,694.7865 74.2356,694.7865 L254.0416,693.9385 L350.7296,667.6455 L406.7076,611.6685 C406.7076,611.6685 460.9886,634.5685 487.2816,693.0905 L751.9016,696.4825 C751.9016,696.4825 777.3466,662.5565 779.8916,604.0345 C782.4346,545.5135 638.2516,387.7585 643.3406,338.5655 C648.4296,289.3735 644.1876,213.0405 628.0736,164.6965 C611.9586,116.3525 587.3626,9.4865 540.7146,2.7015 C494.0666,-4.0845 472.8626,16.2715 441.4816,2.7015 C410.1006,-10.8695 400.7706,39.1715 421.1266,84.9705 C441.4816,130.7705 482.1926,281.7405 468.6226,318.2105" id="Fill-3" fill="#56ACF6" mask="url(#petdog-1-mask-2)"/></g><path d="M519.6733,272.9296 C519.6733,272.9296 610.8293,323.9906 660.0223,312.1166 L665.1103,369.7906 C665.1103,369.7906 569.2703,374.0316 522.6223,328.2316 L519.6733,272.9296 Z" id="Fill-6" fill="#E93737"/><path d="M614.2222,389.722 C614.2222,407.288 599.9822,421.527 582.4162,421.527 C564.8512,421.527 550.6112,407.288 550.6112,389.722 C550.6112,372.156 564.8512,357.917 582.4162,357.917 C599.9822,357.917 614.2222,372.156 614.2222,389.722" id="Fill-8" fill="#E93737"/><path d="M620.1587,27.9886 C620.1587,27.9886 707.5177,125.5256 721.9357,183.1986 C736.3537,240.8726 766.3007,371.3106 711.4647,377.7596 C656.6297,384.2086 660.8697,389.2976 642.2107,303.6356 C623.5517,217.9726 595.5627,150.1216 606.5887,120.4366 C617.6147,90.7516 591.4647,21.8146 620.1587,27.9886" id="Fill-10" fill="#56ACF6"/><path d="M505.6597,19.9313 C505.6597,30.9393 496.7357,39.8623 485.7277,39.8623 C474.7207,39.8623 465.7967,30.9393 465.7967,19.9313 C465.7967,8.9233 474.7207,0.0003 485.7277,0.0003 C496.7357,0.0003 505.6597,8.9233 505.6597,19.9313" id="Fill-12" fill="#204EB2"/><path d="M408.9712,703.1112 L551.5192,706.0512 L532.8002,614.0562 L408.9712,614.9042 C408.9712,614.9042 384.3742,686.9962 408.9712,703.1112" id="Fill-14" fill="#56ACF6"/><path d="M524.2368,110.158 C501.2628,110.158 484.5588,105.17 474.4468,95.259 C464.0908,85.109 464.8678,73.58 464.9068,73.094 L472.8818,73.721 L468.8938,73.408 L472.8838,73.688 C472.8628,74.033 472.4538,82.232 480.2168,89.712 C487.7948,97.012 504.7628,104.93 542.5848,101.189 L543.3718,109.15 C536.5758,109.822 530.1958,110.158 524.2368,110.158" id="Fill-16" fill="#204EB2"/><path d="M305.7378,647.1503 C305.4178,570.1313 289.8218,520.1013 260.6368,502.4683 C235.2948,487.1563 207.5478,501.2613 207.2678,501.4053 L203.5578,494.3183 C204.8468,493.6423 235.4428,477.9683 264.6858,495.5673 C296.8958,514.9523 313.3998,565.9413 313.7378,647.1173 L305.7378,647.1503 Z" id="Fill-18" fill="#204EB2"/><path d="M603.5776,651.5787 C587.9166,594.1517 569.9886,551.4127 557.7076,525.6707 C544.4006,497.7787 534.6726,483.2807 534.5756,483.1377 L541.2026,478.6567 C541.6066,479.2547 551.2786,493.6487 564.8226,522.0047 C577.2746,548.0767 595.4456,591.3547 611.2966,649.4737 L603.5776,651.5787 Z" id="Fill-20" fill="#204EB2"/><path d="M664.731,644.9737 L662.097,637.4197 C663.608,636.8927 699.603,624.4837 743.757,621.9367 L744.218,629.9237 C701.23,632.4037 665.091,644.8487 664.731,644.9737" id="Fill-22" fill="#204EB2"/><path d="M537.5952,704.6634 C511.3242,642.2704 402.3102,585.9494 401.2122,585.3874 L404.8552,578.2654 C405.1352,578.4084 433.2542,592.8624 464.3052,615.0414 C506.2822,645.0254 533.4202,674.1334 544.9682,701.5594 L537.5952,704.6634 Z" id="Fill-24" fill="#204EB2"/><g id="Group-28" transform="translate(541.000000, 703.021000)"><mask id="petdog-1-mask-4" fill="#ffffff"><use xlink:href="#petdog-1-path-3" fill="#ffffff"/></mask><g id="Clip-27"/><path d="M0.2817,0.0902 C0.2817,0.0902 16.3957,119.6782 47.7777,117.9822 C79.1587,116.2862 82.5197,68.3472 72.7817,1.1412 L0.2817,0.0902 Z" id="Fill-26" fill="#AEE2FF" mask="url(#petdog-1-mask-4)"/></g><path d="M663.4146,641.1966 C663.4146,641.1966 686.0856,667.5106 679.5286,704.8076 L613.3736,703.9596 C613.3736,703.9596 570.1186,677.6666 607.4366,650.5266 L663.4146,641.1966 Z" id="Fill-29" fill="#AEE2FF"/><path d="M308.8901,703.9593 L408.9711,703.1113 C408.9711,703.1113 430.1741,676.8183 388.6161,657.3113 C347.0561,637.8043 309.7381,645.4373 309.7381,645.4373 L308.8901,703.9593 Z" id="Fill-31" fill="#AEE2FF"/><path d="M613.3052,19.7707 C613.3052,19.7707 715.9982,72.9407 719.3912,131.4627 C722.7842,189.9837 766.0392,203.5547 761.7982,285.8247 C757.5582,368.0947 729.4282,375.0967 704.9032,376.6847 C680.3772,378.2717 679.5292,240.0247 679.5292,240.0247 C679.5292,240.0247 564.0442,28.5157 613.3052,19.7707" id="Fill-33" fill="#56ACF6"/><path d="M685.7915,384.8459 C680.3765,384.8459 674.4535,383.8369 668.7035,380.8829 C655.8895,374.2979 647.6115,359.9939 644.1015,338.3709 C639.5995,310.6439 631.7745,289.1899 624.8715,270.2609 C616.4665,247.2129 609.2065,227.3079 611.4305,204.6799 C615.2055,166.2639 608.7815,145.6079 608.7165,145.4039 L616.3355,142.9649 C616.6225,143.8629 623.3275,165.4169 619.3915,205.4619 C617.3465,226.2769 623.9835,244.4779 632.3875,267.5199 C639.4125,286.7819 647.3745,308.6139 651.9975,337.0889 C655.0785,356.0669 661.9305,368.4069 672.3595,373.7669 C686.5775,381.0719 703.0315,373.0739 703.1955,372.9919 L706.7505,380.1589 C706.1955,380.4339 697.1095,384.8459 685.7915,384.8459" id="Fill-35" fill="#204EB2"/></g></g></g><g transform="translate(876.000000, 650.000000) scale(1 1)" id="Master/Character/Sitting On Floor"><defs><polygon id="mastercharactersitting-on-floor-path-1" points="0 0.216 1141.521 0.216 1141.521 422.785934 0 422.785934"/></defs><g id="Master/Character/Sitting On Floor" stroke="none" stroke-width="1" fill="none" fill-rule="evenodd"><g id="Upper Body" transform="translate(911.000000, 1329.000000) scale(1 1)"><defs><polygon id="upper-bodywith-tablet-path-1" points="0 0.2826 603.923514 0.2826 603.923514 617 0 617"/><polygon id="upper-bodywith-tablet-path-3" points="0.3831 0.682 291.680835 0.682 291.680835 266.8063 0.3831 266.8063"/><polygon id="upper-bodywith-tablet-path-5" points="0.30206309 0.307802676 128.976 0.307802676 128.976 395.282713 0.30206309 395.282713"/></defs><g id="Upper Body/With Tablet" stroke="none" stroke-width="1" fill="none" fill-rule="evenodd"><path d="M571.998058,659 L536,996.203107 C536,996.203107 886.321032,1080.44905 1014.04118,970.264637 L1027,673.410594 C1027,673.410594 875.332686,668.607063 571.998058,659 Z" id="Fill-1" fill="#D60000"/><path d="M724.954254,220 C724.954254,220 721.26343,301.153386 673.924004,329.799638 C630.972611,355.790794 721.968632,506.610475 819.857852,497.613536 C873.442212,492.688212 886,346.158072 886,346.158072 C886,346.158072 842.733964,337.796917 858.715877,271.819367 L724.954254,220 Z" id="Neck" fill="#ecafa3"/><path d="M803.337113,302.515641 C739.876612,294.840687 694.077698,253.11575 687.664652,183.898064 C669.216286,186.83496 664.86504,138.764927 670.003065,123.322958 C675.146083,107.858975 691.933027,116.900812 691.933027,116.900812 C692.862251,114.457234 693.652358,111.898916 694.303348,109.225857 C722.02532,-4.48555283 799.669805,0.0243586862 799.669805,0.0243586862 C942.344355,7.45715716 908.914243,153.120195 900.762895,191.763142 C892.610548,230.410091 864.683894,309.927426 803.337113,302.515641 Z" id="Head" fill="#ecafa3"/><g id="Group-32" transform="translate(446.000000, 287.000000)"><path d="M568.3187,480.127 C547.2707,471.554 520.1427,444.422 487.6897,399.486 C463.6237,366.163 445.4267,334.916 445.2467,334.605 L448.7057,332.597 C449.4237,333.834 521.1277,456.586 569.8287,476.422 L568.3187,480.127 Z" id="Fill-1" fill="#864A56"/><g id="Group-5" transform="translate(0.000000, 38.318000)"><mask id="upper-bodywith-tablet-mask-2" fill="#ffffff"><use xlink:href="#upper-bodywith-tablet-path-1" fill="#ffffff"/></mask><g id="Clip-4"/><path d="M231.9759,0.2826 C231.9759,0.2826 54.2679,17.1086 17.6219,201.6956 C-19.0241,386.2826 -23.4131,604.0096 258.9759,615.2826 C541.3659,626.5546 565.3839,579.0446 565.1799,568.6636 C564.9759,558.2826 569.9759,387.2826 592.9759,257.2826 C615.9759,127.2826 617.9759,57.2826 441.9759,14.2826 C441.9759,14.2826 363.9759,118.2826 231.9759,0.2826" id="Fill-3" fill="#D60000" mask="url(#upper-bodywith-tablet-mask-2)"/></g><path d="M366.9759,114.6006 L387.9759,18.6006 C387.9759,18.6006 386.9759,2.6006 411.9759,3.6006 C436.9759,4.6006 613.9759,1.6006 613.9759,1.6006 C613.9759,1.6006 627.9759,-0.3994 631.9759,12.6006 C635.9759,25.6006 583.9759,243.6006 583.9759,243.6006 C583.9759,243.6006 584.9759,258.6006 567.9759,258.6006 C550.9759,258.6006 341.9759,266.6006 341.9759,266.6006 L366.9759,114.6006" id="Fill-6" fill="#204EB2"/><g id="Group-10" transform="translate(341.000000, 0.318000)"><mask id="upper-bodywith-tablet-mask-4" fill="#ffffff"><use xlink:href="#upper-bodywith-tablet-path-3" fill="#ffffff"/></mask><g id="Clip-9"/><path d="M26.4671,114.3763 L1.5691,265.7593 C14.1091,265.2803 210.6151,257.7823 226.9761,257.7823 C232.2021,257.7823 236.2061,256.3393 238.8741,253.4913 C242.8161,249.2863 242.4811,243.3743 242.4771,243.3153 L242.4721,243.2403 L242.4891,243.1663 C243.0091,240.9873 294.4121,25.1513 290.4981,12.4303 C286.6721,-0.0017 273.5981,1.6983 273.0461,1.7773 C271.2151,1.8133 95.6821,4.7733 70.9561,3.7823 C61.7981,3.4153 55.1511,5.2793 51.1871,9.3203 C47.2331,13.3523 47.4721,18.2033 47.4751,18.2523 L47.4791,18.3213 L47.4641,18.3893 L26.4671,114.3763 Z M0.3831,266.8063 L25.4881,114.1763 L46.4731,18.2403 C46.4471,17.5633 46.4201,12.7653 50.4561,8.6373 C54.6241,4.3743 61.5531,2.4163 70.9951,2.7823 C95.6971,3.7723 271.1971,0.8123 272.9671,0.7823 C273.0491,0.7663 287.3771,-1.1177 291.4531,12.1353 C295.4381,25.0843 245.8361,233.4443 243.4791,243.3273 C243.5161,244.1003 243.6431,249.8583 239.6131,254.1673 C236.7471,257.2303 232.4951,258.7823 226.9761,258.7823 C210.1801,258.7823 3.0851,266.7023 0.9951,266.7823 L0.3831,266.8063 Z" id="Fill-8" fill="#000" mask="url(#upper-bodywith-tablet-mask-4)"/></g><path d="M373.9759,121.6006 L394.9759,25.6006 C394.9759,25.6006 393.9759,9.6006 418.9759,10.6006 C443.9759,11.6006 620.9759,8.6006 620.9759,8.6006 C620.9759,8.6006 634.9759,6.6006 638.9759,19.6006 C642.9759,32.6006 590.9759,250.6006 590.9759,250.6006 C590.9759,250.6006 591.9759,265.6006 574.9759,265.6006 C557.9759,265.6006 348.9759,273.6006 348.9759,273.6006 L373.9759,121.6006" id="Fill-11" fill="#56ACF6"/><path d="M265.1771,272.1289 C265.1771,272.1289 323.3331,205.8509 339.1951,177.4449 C355.0561,149.0399 355.0561,132.4699 353.7341,119.4509 C352.4121,106.4319 352.4121,91.0459 362.9861,88.6789 C373.5601,86.3119 374.8821,92.2299 376.2031,106.4319 C377.5261,120.6349 376.2031,134.8369 399.9951,126.5529 C423.7861,118.2679 481.9441,98.1479 488.5521,114.7169 C495.1601,131.2869 480.6211,133.6529 480.6211,133.6529 C480.6211,133.6529 491.1961,134.8369 493.8391,143.1219 C496.4831,151.4069 493.8391,157.3249 485.9081,160.8749 C477.9781,164.4259 474.0131,165.6089 474.0131,165.6089 C474.0131,165.6089 489.8731,163.2419 493.8391,175.0779 C497.8041,186.9129 491.1961,192.8309 484.5871,195.1979 C484.5871,195.1979 493.0871,196.5659 495.1601,205.8509 C496.4831,211.7689 488.5521,215.3179 479.3001,218.8689 C466.7921,223.6699 429.0731,224.7869 397.3521,244.9069 C365.6291,265.0279 288.9681,396.4019 250.6381,436.6429 C212.3071,476.8839 173.9761,372.7319 173.9761,372.7319 C173.9761,372.7319 221.5591,312.3699 265.1771,272.1289" id="Fill-13" fill="#ecafa3"/><polygon id="Fill-15" fill="#000" points="414.9241 152.8555 414.1451 149.9595 480.2321 132.2055 481.0111 135.1015"/><polygon id="Fill-17" fill="#000" points="414.9241 183.628 414.1451 180.732 480.2321 162.978 481.0111 165.874"/><polygon id="Fill-19" fill="#000" points="422.8538 214.3995 422.0768 211.5035 488.1638 193.7505 488.9408 196.6465"/><g id="Group-23" transform="translate(540.000000, 85.318000)"><mask id="upper-bodywith-tablet-mask-6" fill="#ffffff"><use xlink:href="#upper-bodywith-tablet-path-5" fill="#ffffff"/></mask><g id="Clip-22"/><path d="M33.7708,338.8559 C33.7708,338.8559 43.0228,291.5139 46.9878,232.3359 C50.9538,173.1599 49.6308,147.1219 44.3438,142.3869 C39.0568,137.6529 2.0478,138.8359 2.0478,119.8999 C2.0478,100.9619 28.4838,106.8799 28.4838,106.8799 C28.4838,106.8799 0.7268,102.1459 3.3708,87.9439 C6.0138,73.7409 21.8748,76.1079 21.8748,76.1079 C21.8748,76.1079 -3.2392,71.3739 0.7268,55.9879 C4.6918,40.6019 28.4838,46.5189 28.4838,46.5189 C28.4838,46.5189 6.0138,42.9689 15.2658,27.5829 C24.5178,12.1969 40.3788,21.6649 58.8828,26.3989 C77.3878,31.1329 78.7098,32.3169 80.0318,25.2149 C81.3528,18.1139 78.7098,-0.8231 93.2498,0.3609 C107.7888,1.5439 110.4318,6.2789 110.4318,32.3169 C110.4318,58.3549 114.3968,82.0259 118.3628,105.6969 C122.3278,129.3679 123.6488,156.5889 121.0058,200.3809 C118.3628,244.1719 155.3718,373.1789 89.2838,392.1169 C23.1968,411.0529 33.7708,338.8559 33.7708,338.8559" id="Fill-21" fill="#ecafa3" mask="url(#upper-bodywith-tablet-mask-6)"/></g><polygon id="Fill-24" fill="#000" points="601.722 200.3213 562.85 191.9723 563.481 189.0393 602.353 197.3873"/><polygon id="Fill-26" fill="#000" points="600.7884 171.2422 561.9154 162.8922 562.5464 159.9592 601.4194 168.3082"/><polygon id="Fill-28" fill="#000" points="602.4905 139.9629 563.6185 131.6139 564.2495 128.6809 603.1215 137.0289"/><polygon id="Fill-30" fill="#000" points="638.2708 120.876 619.1058 116.733 619.7408 113.802 638.9058 117.944"/></g></g></g><g id="Lower Body/Sitting on Floor" transform="translate(1165.000000, 2270.000000) scale(-1, 1) translate(-1165.000000, -2270.000000) translate(0.000000, 1832.000000) scale(1 1)"><defs><polygon id="lower-bodysitting-on-floorspread-out-4-path-1" points="0.2961 0.0297382716 168.575 0.0297382716 168.575 293.567627 0.2961 293.567627"/></defs><g id="Lower Body/Sitting on Floor/Spread Out 4" stroke="none" stroke-width="1" fill="none" fill-rule="evenodd"><g id="Lower-Body" transform="translate(384.000000, 0.000000)"><polygon id="Fill-1" fill="#F8D8B8" points="1626.2961 637.5588 1598.2961 740.4158 1649.2961 757.5588 1681.2961 656.5588"/><polygon id="Fill-2" fill="#E4F9FF" points="1678.2961 649.5588 1642.2961 763.5588 1694.2961 780.5588 1732.2961 669.5588"/><g id="Group-44" transform="translate(0.000000, 0.494000)"><path d="M1736.2961,657.0648 C1736.2961,657.0648 1728.2961,657.0648 1718.2961,662.0648 C1708.2961,667.0648 1656.2961,736.0648 1686.2961,779.0648 C1686.2961,779.0648 1691.2961,782.0648 1697.2961,783.0648 C1703.2961,784.0648 1714.2961,802.0648 1733.2961,812.0648 C1733.2961,812.0648 1729.2961,799.0648 1744.2961,760.0648 C1759.2961,721.0648 1845.2961,514.0648 1886.2961,512.0648 C1886.2961,512.0648 1870.2961,499.0648 1821.2961,555.0648 C1775.0081,607.9648 1736.2961,657.0648 1736.2961,657.0648" id="Fill-3" fill="#2E2C36"/><path d="M1733.2961,812.0648 C1733.2961,812.0648 1750.2961,841.0648 1777.2961,836.0648 C1804.2961,831.0648 1812.1331,806.3298 1821.2151,785.6978 C1830.2961,765.0648 1922.2121,538.0708 1922.2121,538.0708 C1922.2121,538.0708 1912.0891,505.3828 1884.3841,511.7228 C1852.2961,519.0648 1822.2961,587.0648 1822.2961,587.0648 L1735.2961,767.0648 C1735.2961,767.0648 1726.2961,793.0648 1733.2961,812.0648" id="Fill-5" fill="#E4F9FF"/><g id="Group-9" transform="translate(1757.000000, 530.000000)"><mask id="lower-bodysitting-on-floorspread-out-4-mask-2" fill="#ffffff"><use xlink:href="#lower-bodysitting-on-floorspread-out-4-path-1" fill="#ffffff"/></mask><g id="Clip-8"/><path d="M0.2961,272.0648 L111.2961,34.0648 C111.2961,34.0648 134.2961,-6.9352 157.2961,1.0648 C180.2961,9.0648 162.2961,46.0648 154.2961,75.0648 C146.2961,104.0648 66.2961,274.0648 45.2961,290.0648 C30.6291,301.2398 1.2961,283.0648 0.2961,272.0648" id="Fill-7" fill="#2E2C36" mask="url(#lower-bodysitting-on-floorspread-out-4-mask-2)"/></g><path d="M1697.2961,783.0648 C1697.2961,783.0648 1686.2961,754.0648 1699.2961,719.0648 C1712.2961,684.0648 1736.2961,657.0648 1736.2961,657.0648 C1736.2961,657.0648 1710.9961,649.1378 1689.6461,700.1018 C1668.2961,751.0648 1672.2961,778.0648 1697.2961,785.0648" id="Fill-10" fill="#3B3D4A"/><path d="M1705.4382,754.8051 C1705.4382,754.8051 1702.2482,725.9021 1717.2712,717.4831 C1732.2962,709.0651 1755.2962,705.0651 1758.2962,693.0651 C1761.2962,681.0651 1759.2962,663.0651 1759.2962,663.0651" id="Stroke-12" stroke="#FFF" stroke-width="10"/><path d="M466.4167,775.7921 C466.4167,775.7921 477.3987,819.6771 482.4557,827.5521 C487.5127,835.4261 581.4757,877.7511 611.4627,874.8581 C641.4497,871.9651 691.8617,852.8801 698.4727,838.5131 C705.0837,824.1461 696.1837,779.7921 686.6857,771.6301 C677.1867,763.4681 466.4167,775.7921 466.4167,775.7921" id="Fill-14" fill="#E4F9FF"/><g id="Group-18" transform="translate(0.000000, 332.000000)" fill="#000"><path d="M16.1797,62.5732 C16.1797,62.5732 -57.7043,340.0652 110.2957,383.0652 C278.2957,426.0652 466.0337,387.1912 672.2957,320.0652 C841.2957,265.0652 834.2957,202.0652 1049.2957,264.0652 C1203.1397,308.4292 1599.2957,419.0652 1599.2957,419.0652 L1640.2957,299.0652 C1640.2957,299.0652 1049.2957,-5.9348 814.2957,1.0652 C726.2837,3.6862 449.1117,60.0562 449.1117,60.0562 L16.1797,62.5732 Z" id="Fill-16"/></g><g id="Group-21" transform="translate(37.000000, 0.000000)" fill="#000"><path d="M0.9712,428.7904 C0.9712,428.7904 185.2962,47.0644 255.2962,13.0644 C325.2962,-20.9356 352.2962,20.0644 358.2962,65.0644 C364.2962,110.0644 494.2962,538.0644 494.2962,538.0644 L339.2962,579.0644 L0.9712,428.7904 Z" id="Fill-19"/></g><polygon id="Stroke-22" fill="#204EB2" fill-rule="nonzero" points="282.551887 365.987397 378.049887 565.832397 373.538513 567.988203 278.040513 368.143203"/><path d="M508.8442,538.4777 L520.5632,576.8397 C473.9942,576.7947 437.1112,597.9907 427.0342,603.0387 L416.5112,565.4327 L508.8442,538.4777 Z" id="Fill-24" fill="#F7C8A9"/><path d="M546.2759,649.3451 L444.4279,674.6511 L423.2959,598.0651 C423.2959,598.0651 423.5749,597.9341 425.2959,597.0651 C435.3729,592.0161 475.4189,573.3511 521.9879,573.397015" id="Fill-26" fill="#E4F9FF"/><path d="M512.6682,801.3766 C512.6682,801.3766 584.0212,830.7676 632.3492,812.1516 C680.6782,793.5356 691.8032,781.1366 691.5272,779.9106 C691.2512,778.6856 611.2772,709.6706 595.5302,702.9166 C579.7832,696.1626 539.2172,666.6706 523.0842,692.1976 C506.9502,717.7246 482.9122,737.3056 486.0132,755.9236 C489.1142,774.5416 512.6682,801.3766 512.6682,801.3766" id="Fill-28" fill="#353644"/><path d="M446.811,688.7792 C446.811,688.7792 450.745,754.8042 468.615,785.5472 L515.303,803.3582 C515.303,803.3582 501.823,767.8142 512.876,753.7342 C523.928,739.6542 530.263,724.0612 530.413,715.0132 C530.563,705.9652 570.9,695.5892 570.9,695.5892 C570.9,695.5892 577.614,710.8172 589.621,710.6872 C601.629,710.5572 663.471,755.4802 663.471,755.4802 C663.471,755.4802 648.335,739.5172 632.461,722.4902 C616.588,705.4622 560.959,651.4692 560.959,651.4692 L446.811,688.7792 Z" id="Fill-30" fill="#2C262B"/><path d="M441.4919,661.9867 C441.4919,661.9867 431.5439,672.4287 437.8639,682.2807 C444.1839,692.1327 465.4259,686.3207 485.6929,680.7297 C505.9589,675.1377 554.5169,663.1717 558.0749,656.2197 C561.6339,649.2677 555.1909,634.3187 542.1659,631.1027 C542.1659,631.1027 545.9989,643.5647 540.5849,646.8347 C535.1709,650.1047 450.4219,674.3257 446.8359,672.0587 C443.2499,669.7907 441.4919,661.9867 441.4919,661.9867" id="Fill-32" fill="#3E454F"/><path d="M513.9958,715.3551 C513.9958,715.3551 540.3778,686.8591 569.7948,694.5821 C569.7948,694.5821 579.4538,696.5061 575.9638,690.1171 C572.4738,683.7271 567.3768,683.8511 567.3768,683.8511 C567.3768,683.8511 568.0088,677.5581 562.6918,676.7061 C562.6918,676.7061 564.2988,670.1931 557.0308,669.7811 C557.0308,669.7811 554.7088,654.9281 539.0038,662.5671 C523.2988,670.2061 492.8378,676.0441 496.7668,684.3851 C500.6958,692.7251 502.9638,689.1391 502.9638,689.1391 C502.9638,689.1391 501.1358,694.6761 505.3808,699.8701 C509.6268,705.0631 508.9678,702.1371 508.9678,702.1371 C508.9678,702.1371 504.1168,712.4551 513.9958,715.3551" id="Fill-34" fill="#FFF"/><path d="M499.281,690.9936 C499.281,690.9936 505.231,685.5526 514.986,683.3546" id="Stroke-36" stroke="#000" stroke-width="4"/><path d="M560.7131,667.9262 C560.7131,667.9262 549.7621,669.3682 543.3731,672.8582" id="Stroke-38" stroke="#000" stroke-width="4"/><path d="M572.0439,683.5956 C572.0439,683.5956 556.9619,683.1226 550.3529,685.6366" id="Stroke-40" stroke="#000" stroke-width="4"/><path d="M504.5293,705.1872 C504.5293,705.1872 513.9413,696.9162 527.3793,692.8632" id="Stroke-42" stroke="#000" stroke-width="4"/></g></g></g></g><g id="Expression" transform="translate(1633.000000, 1412.000000) scale(1 1)" fill="#000"><g id="Expression/Meditating" stroke="none" stroke-width="1" fill="none" fill-rule="evenodd"><g id="Group-124" transform="translate(25.000000, 31.000000)" fill="#000" fill-rule="nonzero"><path d="M104.685189,41.7608422 C105.799739,40.6260634 107.594825,40.5649295 108.78246,41.5890238 L109.323265,42.0922215 C109.679851,42.417346 110.098676,42.7830843 110.574652,43.1792057 C111.94412,44.3189167 113.484129,45.4610626 115.151599,46.5241767 C119.702796,49.4258418 124.295338,51.172265 128.558587,51.2424016 C132.874539,51.3130298 136.865025,49.9074098 140.437409,47.4948081 C141.67134,46.6614747 142.761501,45.768172 143.691014,44.8802215 L143.992411,44.5872953 C144.224631,44.3574693 144.409243,44.1644586 144.544403,44.0166431 L144.733887,43.8011958 C145.791956,42.526184 147.683292,42.3503175 148.958304,43.408387 C150.233316,44.4664564 150.409182,46.3577925 149.351113,47.6328042 L149.150042,47.8672558 C148.847545,48.210262 148.407828,48.6720596 147.83555,49.2187491 C146.672781,50.3295265 145.323752,51.4349517 143.795434,52.4670978 C139.27381,55.5207674 134.125278,57.3343007 128.460152,57.2415941 C122.909111,57.1502715 117.329711,55.028572 111.926036,51.5834002 C110.031541,50.3755444 108.290777,49.0845082 106.736552,47.7910371 L106.286566,47.4122537 C105.573365,46.8047902 105.045411,46.3196388 104.723342,46.0033113 C103.541281,44.8423217 103.524199,42.9429035 104.685189,41.7608422 Z" id="Stroke-110"/><path d="M38.7253835,117.884449 C39.5642128,116.527263 41.3095678,116.07235 42.6962173,116.818359 L43.3869917,117.21948 L43.8984869,117.502848 C44.2590401,117.698929 44.6584684,117.908937 45.0953445,118.130389 C46.9879034,119.089729 49.1612767,120.052834 51.576502,120.953225 C60.5558907,124.300723 70.2239338,125.866606 79.9973044,124.67862 C81.6420524,124.478696 83.1374551,125.649956 83.3373798,127.294704 C83.5373044,128.939452 82.3660437,130.434855 80.7212956,130.63478 C69.894657,131.950794 59.2949096,130.234008 49.4806187,126.57526 C46.8465621,125.593288 44.4687237,124.539577 42.3825599,123.482099 L41.6157512,123.086639 C40.7409474,122.627255 40.0965569,122.258685 39.7000485,122.013616 C38.290664,121.142525 37.8542916,119.293833 38.7253835,117.884449 Z" id="Stroke-112"/><path d="M98.9388073,21.5157268 L102.747593,22.7376732 L102.375135,23.9309532 C102.075892,24.9043293 101.742122,26.0179097 101.382468,27.2529166 C100.354215,30.7838089 99.3257634,34.5761133 98.3662837,38.478955 C97.2996742,42.8175645 96.3854385,47.0250163 95.6702376,50.9976992 L95.4631649,52.1740325 C93.7257688,62.2776329 93.4803733,69.9926374 95.0328764,74.1417647 L95.1244408,74.3771728 C104.002358,96.340079 91.9464166,107.47795 66.6424816,99.6786942 L65.8716485,99.4365483 L67.0907515,95.6268517 C89.8846425,102.920897 99.0260452,94.7026714 91.4159925,75.8763096 C89.3210345,70.6942966 89.6433125,61.8993486 91.7335247,50.288974 C92.4647551,46.2272527 93.3964651,41.9393815 94.4819426,37.5240234 C95.3476055,34.0027971 96.2678852,30.5727889 97.1943734,27.3381428 L97.5420029,26.1345115 C97.7507758,25.4176112 97.9510908,24.7405619 98.1413397,24.1068373 L98.6297394,22.5024497 L98.9388073,21.5157268 Z" id="Stroke-114"/><path d="M24.5912986,0.515294847 C27.6392394,0.103272361 30.4710762,-0.0333671966 33.0631806,0.158696725 C36.7115321,0.428668329 41.5437912,1.40832846 47.38095,2.94765852 C49.16614,3.41843493 51.0205155,3.93578045 52.9276851,4.49220122 C56.1314208,5.42689786 59.3319836,6.42632221 62.3826864,7.42579929 L64.3883843,8.09051311 L66.3809754,8.76899282 C69.2488284,9.77010581 70.7621202,12.9065224 69.7610072,15.7743754 C68.784922,18.5705321 65.7789638,20.079009 62.9711796,19.2247943 L62.6828368,19.1290737 L61.7501044,18.8096194 C60.9247361,18.529366 59.9876716,18.2164443 58.9579598,17.8790882 C56.0143005,16.9146808 52.9257075,15.9502208 49.8468536,15.0519587 C48.0274857,14.5211542 46.264248,14.0292349 44.57601,13.5840259 L43.4692061,13.2961425 C38.7383101,12.0831846 34.8659461,11.3221737 32.2508875,11.1286639 C30.4966745,10.9986842 28.4072689,11.0995005 26.0648822,11.4161458 C23.2480808,11.7969227 20.1879155,12.4702927 17.0440173,13.3532292 C15.4806567,13.7922855 13.9823806,14.2588747 12.5892526,14.7284835 L11.9016364,14.9634261 C11.4618938,15.1157145 11.0608605,15.2586308 10.7024987,15.389676 L9.97161227,15.6633149 C7.14357473,16.7719229 3.95229301,15.3780498 2.84368505,12.5500123 C1.7350771,9.72197473 3.12895018,6.53069301 5.95698773,5.42208505 L6.52985093,5.20370717 C6.98422439,5.03423142 7.580659,4.81888054 8.30194561,4.56908982 C10.0818577,3.95268364 12.0231675,3.33772818 14.0698269,2.76294164 C17.6714831,1.75144773 21.2151691,0.971682068 24.5912986,0.515294847 Z" id="Stroke-116"/><path d="M121.789545,16.5878801 L123.114219,16.5529702 C128.555995,16.4306526 133.021889,16.6000706 136.338056,17.1542512 C138.168033,17.4600991 140.074506,17.9728696 142.05661,18.6687631 C144.999596,19.7020115 148.057071,21.1185695 151.173952,22.8231086 C153.163457,23.9111153 155.079106,25.0624467 156.876125,26.2225048 L157.638883,26.7200477 C158.857885,27.5234673 159.765181,28.1586854 160.289098,28.5434618 C162.679021,30.2986767 163.193553,33.6589748 161.438338,36.0488977 C159.730562,38.3742281 156.503291,38.9241706 154.128755,37.3354869 L153.387738,36.810348 L152.775165,36.3869315 C152.451527,36.1659242 152.102331,35.9314768 151.729689,35.6858759 C149.947809,34.5114755 148.017701,33.3358642 146.02174,32.244327 C143.380044,30.7996542 140.834405,29.6202345 138.499485,28.8004711 C137.066648,28.2974188 135.746258,27.9422828 134.568033,27.7453637 C131.847034,27.2906445 127.508258,27.1586717 122.11249,27.3210227 C118.82153,27.420043 115.289632,27.6221963 111.690697,27.8970199 L110.130765,28.0203831 C109.109219,28.103955 108.126228,28.1898666 107.192238,28.2762012 L104.514558,28.5395365 C101.566608,28.8590654 98.9177923,26.7283087 98.5982635,23.7803582 C98.2867228,20.9061064 100.304485,18.31622 103.137903,17.8923638 L103.931548,17.8040918 L105.143479,17.6838888 L105.484548,17.6512271 C107.138496,17.4939444 108.952748,17.3368342 110.873097,17.1901915 C114.625356,16.9036597 118.316967,16.6923651 121.789545,16.5878801 Z" id="Stroke-118"/><path d="M17.7652887,31.9386422 C18.8798388,30.8038634 20.6749245,30.7427295 21.8625603,31.7668238 L22.403365,32.2700215 L22.8608172,32.6790108 C23.104155,32.8925979 23.3691663,33.1193328 23.6547521,33.3570057 C25.0242202,34.4967167 26.5642285,35.6388626 28.2316992,36.7019767 C32.782896,39.6036418 37.3754377,41.350065 41.6384215,41.4201973 C45.9543059,41.4904425 49.9447471,40.0848333 53.5171065,37.6725085 C54.7511834,36.8391674 55.8414724,35.9458579 56.7710952,35.0579011 L57.2061483,34.6315612 C57.4192767,34.4167948 57.5844234,34.2405199 57.6997444,34.1111159 L57.8140951,33.9788655 C58.8722365,32.7039134 60.7635824,32.5281537 62.0385345,33.5862951 C63.3134866,34.6444365 63.4892463,36.5357824 62.4311049,37.8107345 L62.2300134,38.0451828 C61.9274859,38.3881843 61.4877247,38.8499766 60.9153892,39.3966598 C59.7525044,40.5074237 58.403344,41.612835 56.8748828,42.6449665 C52.3534608,45.6981695 47.2052461,47.5115975 41.5402524,47.4193941 C35.9892107,47.3280715 30.409811,45.206372 25.0061361,41.7612002 C23.1116412,40.5533444 21.3708772,39.2623082 19.8166522,37.9688371 L19.3666664,37.5900537 C18.6534646,36.9825902 18.1255109,36.4974388 17.8034422,36.1811113 C16.6213809,35.0201217 16.604299,33.1207035 17.7652887,31.9386422 Z" id="Stroke-120"/><path d="M0.1850015,174.534088 L2.1419985,171.045512 L2.85620174,171.434727 L3.51128674,171.782909 C4.50308988,172.305335 5.6321651,172.880908 6.88714027,173.498006 L7.43266178,173.764985 C11.6537624,175.821142 16.3218862,177.878362 21.3004212,179.797989 C32.7483158,184.212076 44.0600582,187.224884 54.584272,188.202241 C59.3535856,188.645156 63.8735301,188.656119 68.1063644,188.201856 L68.9490919,188.10479 L69.4379081,192.07481 C64.6629697,192.662733 59.5745075,192.682884 54.2143935,192.185103 C43.2765951,191.169337 31.6251616,188.066055 19.8613669,183.530163 C14.7706849,181.567294 9.99959664,179.464698 5.68097489,177.361037 L4.04785364,176.55429 C3.35348222,176.206284 2.70158001,175.872883 2.09423579,175.556252 L0.962732129,174.958187 L0.1850015,174.534088 Z" id="Stroke-122"/></g></g></g><g id="Hairstyle" transform="translate(1142.000000, 1085.000000) scale(1 1)" fill="#000"><g id="Hairstyle/Double Bun" stroke="none" stroke-width="1" fill="none" fill-rule="evenodd"><g id="Group-13" transform="translate(413.000000, 182.000000)"><path d="M185.4792,97.481 C185.4792,97.481 100.3482,99.373 75.7552,165.585 C51.1622,231.798 73.1162,253.966 54.1612,294.684 C35.2072,335.401 0.1062,338.911 0.1062,338.911 C0.1062,338.911 47.8432,309.426 48.5452,273.624 C49.2472,237.82 46.8652,183.377 47.3542,181.464 C47.8432,179.552 28.9122,174.451 25.3902,187.883 C25.3902,187.883 14.2412,108.021 57.1422,61.883 C118.1362,-3.715 273.0272,24.528 267.5532,143.585 C263.6322,228.863 270.8322,258.974 270.8322,258.974 C270.8322,258.974 264.7822,224.521 261.8492,191.767 C258.9162,159.013 251.6222,116.46 198.0442,98.473 C198.0442,98.473 176.2302,78.573 169.7242,77.042 C163.2182,75.511 187.8392,89.217 185.4792,97.481" id="Fill-1" fill="#000"/><path d="M185.4792,97.481 C185.4792,97.481 100.3482,99.373 75.7552,165.585 C51.1622,231.798 73.1162,253.966 54.1612,294.684 C35.2072,335.401 0.1062,338.911 0.1062,338.911 C0.1062,338.911 47.8432,309.426 48.5452,273.624 C49.2472,237.82 46.8652,183.377 47.3542,181.464 C47.8432,179.552 28.9122,174.451 25.3902,187.883 C25.3902,187.883 14.2412,108.021 57.1422,61.883 C118.1362,-3.715 273.0272,24.528 267.5532,143.585 C263.6322,228.863 270.8322,258.974 270.8322,258.974 C270.8322,258.974 264.7822,224.521 261.8492,191.767 C258.9162,159.013 251.6222,116.46 198.0442,98.473 C198.0442,98.473 176.2302,78.573 169.7242,77.042 C163.2182,75.511 187.8392,89.217 185.4792,97.481 Z" id="Stroke-3" fill="#ffc943"/><path d="M100.244394,84.06 C100.244394,84.06 62.7173936,106.576 34.1973936,70.55 C5.67739356,34.525 49.2083936,1.42108547e-14 86.7343936,1.42108547e-14 C124.261394,1.42108547e-14 137.771394,22.516 134.768394,46.534 C131.766394,70.55 116.756394,78.056 100.244394,84.06 Z" id="Stroke-7" fill="#ffc943"/><path d="M249.634659,6.11821636 C249.634659,6.11821636 291.853659,13.0142164 294.121659,56.4672164 C296.387659,99.9192164 242.696659,97.9632164 213.112659,74.8762164 C183.528659,51.7882164 185.513659,27.2862164 201.358659,11.8622164 C217.202659,-3.56078364 233.248659,0.277216362 249.634659,6.11821636 Z" id="Stroke-11" fill="#ffc943"/></g></g></g><g id="Accessories" transform="translate(1586.000000, 1445.000000) scale(1 1)"><g id="Accessories/None" stroke="none" stroke-width="1" fill="none" fill-rule="evenodd" fill-opacity="0"/></g><g id="Facial Hair" transform="translate(1596.000000, 1446.000000) scale(1 1)"><g id="Facial Hair/None" stroke="none" stroke-width="1" fill="none" fill-rule="evenodd" fill-opacity="0"/></g></g></g></g></svg>